<?xml version="1.0" encoding="UTF-8"?>
<svg id="Layer_1" data-name="Layer 1" xmlns="http://www.w3.org/2000/svg" version="1.1" viewBox="0 0 616.7 1055.4">
  <defs>
    <style>
      .cls-1 {
        fill: #fff;
        stroke-width: 0px;
      }
    </style>
  </defs>
  <g id="Rocket">
    <path class="cls-1" d="M227,993.5c24.6,24.7,51,37.2,78.7,37.2,110.9,0,198.5-204.7,199.5-466.1,0-9.5-.7-18.9-1.6-28.3,1.9-.8,4-1.9,6.3-3.3,46.6-28.8,147.3-170.2,42.2-346.4-2.7-4.5-7.9-6.9-13.1-5.9-2.5.5-4.7,1.7-6.5,3.4s-3.1,4.2-3.5,6.9c-13.3,82.5-37.8,134.8-76.5,163-1.9-6.5-3.6-12.9-5.1-19.3-1.3-5.7-6.4-9.7-12.2-9.7h-27.7s.2-51.8.2-51.8c0-3.3-1.3-6.5-3.6-8.9s-5.5-3.7-8.8-3.7h-173.5c-3.4,0-6.6,1.3-8.8,3.6s-3.7,5.4-3.7,8.8l-.2,51.9h-27.8c-3.4,0-6.5,1.4-8.8,3.6s-2.8,3.6-3.3,5.9c-1.4,5.9-3,11.9-4.8,17.9-39.4-28-63.9-80.6-76.8-164.1-.8-5.2-4.8-9.3-9.9-10.4-4.1-.8-8.3.5-11.3,3.4s-1.3,1.5-1.9,2.4c-106.2,175.7-6.7,317.3,39.5,346.4,2.8,1.8,5.3,2.9,7.7,3.7-1.2,10.1-2.1,20.2-2.1,30.4-.7,188.4,45.4,356.8,117.5,429.2ZM460.6,378.8c41.8-27.1,69.7-75.1,86.2-148.7,39.1,83.6,27.7,152.9,9.6,198.2-13.5,33.9-32.3,58.3-46.1,72.1-3.7,3.7-7.1,6.6-9.9,8.8l-39.8-130.4ZM234.1,285.7h148.5c0,0-.2,39.4-.2,39.4h-128.2s-20.2,0-20.2,0v-39.4ZM58.3,426.2c-17.9-45.4-29-114.9,10.9-198.7,16,73.5,43.5,121.5,85.1,148.7l-40.8,130.4c-13.1-10.1-38.3-37.7-55.2-80.3ZM169.3,416.4c8.1-23,15.8-44.9,21.6-66.4h234.4c4.5,17.3,10.4,34.9,16.6,53.1l31.7,103.7c4.1,19.1,6.6,38.4,6.6,57.6-.9,239.2-80.7,441.2-174.4,441.2-20.8,0-41.3-10.1-61-29.8-66.6-66.8-110.8-232.2-110.2-411.4.2-49.9,17.8-99.8,34.8-148Z"/>
    <path class="cls-1" d="M380.5,770.8c0-20.1-7.7-39-21.8-53.2s-33-22.1-53.1-22c-20.7,0-39.5,8.4-53.2,22.1-13.7,13.6-22.2,32.4-22.3,53.1,0,20.1,7.7,39,21.8,53.2,14.2,14.2,33,22.1,53.1,22,41.4,0,75.3-33.7,75.5-75.2ZM255.1,770.8c.1-27.7,22.8-50.3,50.5-50.3,13.4,0,26,5.2,35.4,14.7s14.6,22.1,14.5,35.5c0,13.9-5.8,26.4-14.9,35.5s-21.7,14.7-35.6,14.8c-13.4,0-26-5.2-35.4-14.7s-14.6-22.1-14.6-35.5Z"/>
    <path class="cls-1" d="M310.6,235.4c6.9,0,12.5-5.6,12.5-12.5l.6-176.4c0-6.9-5.5-12.5-12.5-12.5-3.5,0-6.6,1.4-8.9,3.6s-3.7,5.4-3.7,8.8l-.6,176.4c0,6.9,5.5,12.5,12.5,12.5Z"/>
    <path class="cls-1" d="M363.1,97.9c-2.3,2.2-3.7,5.4-3.7,8.8l-.4,116.2c0,6.9,5.6,12.5,12.5,12.5,6.9,0,12.5-5.5,12.5-12.5l.4-116.2c0-6.9-5.6-12.5-12.5-12.5-3.5,0-6.6,1.4-8.9,3.6Z"/>
    <path class="cls-1" d="M262.2,223l.4-116.2c0-6.9-5.6-12.5-12.5-12.5-3.5,0-6.6,1.4-8.9,3.6s-3.7,5.4-3.7,8.8l-.4,116.2c0,6.9,5.6,12.5,12.5,12.5,6.9,0,12.5-5.5,12.5-12.5Z"/>
  </g>
</svg>